<?xml version="1.0" encoding="UTF-8"?><svg id="Layer_1" xmlns="http://www.w3.org/2000/svg" viewBox="0 0 546.51 319.13"><path d="M57.22,276.7v10.68h5.55v1.42l-2.3.47-8.73,28.74h13.75l1.48-5.02-2.3-.47v-1.42h15.87l2.07,6.9h13.75l-12.57-41.3h-26.55ZM78.93,300.36h-8.08l3.19-10.5,2.6,8.62,2.3.47v1.42Z" style="fill:#fff;"/><path d="M127.08,301.13c0,1.22-.22,2.29-.65,3.22-.43.92-1,1.7-1.71,2.33-.71.63-1.53,1.09-2.45,1.39-.93.29-1.86.44-2.8.44s-1.88-.16-2.8-.47c-.92-.31-1.74-.78-2.45-1.39-.71-.61-1.28-1.38-1.71-2.3-.43-.92-.65-2-.65-3.22v-24.43h-17.05v10.68h5.55v1.42l-2.24.47v11.27c0,3.11.61,5.82,1.83,8.14,1.22,2.32,2.82,4.26,4.81,5.81,1.99,1.55,4.26,2.71,6.82,3.48,2.56.77,5.17,1.15,7.85,1.15s5.3-.38,7.88-1.15c2.58-.77,4.87-1.93,6.87-3.48,2.01-1.55,3.62-3.5,4.84-5.84,1.22-2.34,1.83-5.07,1.83-8.17v-23.78h-13.75v24.43Z" style="fill:#fff;"/><polygon points="147.38 287.38 159.3 287.38 159.3 318.01 173.05 318.01 173.05 289.27 170.75 288.8 170.75 287.38 184.97 287.38 184.97 276.7 147.38 276.7 147.38 287.38" style="fill:#fff;"/><path d="M233.68,281.13c-2.38-1.81-5.16-3.17-8.35-4.07-3.19-.9-6.57-1.36-10.15-1.36s-6.88.45-10.03,1.36c-3.15.9-5.9,2.26-8.26,4.07-2.36,1.81-4.24,4.07-5.64,6.79-1.4,2.71-2.09,5.88-2.09,9.5s.7,6.79,2.09,9.5c1.4,2.71,3.28,4.97,5.66,6.76,2.38,1.79,5.15,3.14,8.32,4.04,3.17.9,6.52,1.36,10.06,1.36s6.88-.45,10.03-1.36c3.15-.9,5.92-2.25,8.32-4.04,2.4-1.79,4.3-4.04,5.69-6.76,1.4-2.71,2.09-5.88,2.09-9.5s-.7-6.79-2.09-9.5c-1.4-2.71-3.28-4.98-5.66-6.79ZM226.77,302.1c-.61,1.4-1.46,2.56-2.54,3.48-1.08.92-2.38,1.61-3.89,2.07-1.51.45-3.2.68-5.05.68s-3.48-.23-5.02-.68c-1.53-.45-2.84-1.14-3.92-2.07-1.08-.92-1.93-2.08-2.54-3.48-.61-1.4-.91-3.04-.91-4.93s.3-3.38.91-4.72c.61-1.34,1.45-2.45,2.54-3.33,1.08-.89,2.39-1.55,3.92-2.01,1.53-.45,3.21-.68,5.02-.68s3.53.23,5.05.68c1.51.45,2.81,1.12,3.89,2.01,1.08.89,1.93,2,2.54,3.33.61,1.34.92,2.91.92,4.72s-.31,3.53-.92,4.93Z" style="fill:#fff;"/><polygon points="272.47 289.21 273.42 291.33 272.3 292.22 260.67 276.7 243.68 276.7 243.68 287.38 249.22 287.38 249.22 288.8 246.92 289.27 246.92 318.01 260.67 318.01 260.67 297.23 259.73 295.11 260.85 294.28 271.29 308.27 281.91 294.05 281.91 318.01 295.66 318.01 295.66 276.7 281.91 276.7 272.47 289.21" style="fill:#fff;"/><path d="M346.44,281.13c-2.38-1.81-5.16-3.17-8.35-4.07s-6.57-1.36-10.15-1.36-6.88.45-10.03,1.36-5.9,2.26-8.26,4.07c-2.36,1.81-4.24,4.07-5.63,6.79-1.4,2.71-2.1,5.88-2.1,9.5s.7,6.79,2.1,9.5c1.4,2.71,3.28,4.97,5.66,6.76,2.38,1.79,5.15,3.14,8.32,4.04,3.17.9,6.52,1.36,10.06,1.36s6.88-.45,10.03-1.36c3.15-.9,5.92-2.25,8.32-4.04,2.4-1.79,4.3-4.04,5.69-6.76,1.4-2.71,2.09-5.88,2.09-9.5s-.7-6.79-2.09-9.5c-1.4-2.71-3.28-4.98-5.66-6.79ZM339.54,302.1c-.61,1.4-1.46,2.56-2.54,3.48-1.08.92-2.38,1.61-3.89,2.07-1.52.45-3.2.68-5.05.68s-3.48-.23-5.02-.68c-1.53-.45-2.84-1.14-3.92-2.07-1.08-.92-1.93-2.08-2.54-3.48s-.91-3.04-.91-4.93.3-3.38.91-4.72c.61-1.34,1.45-2.45,2.54-3.33,1.08-.89,2.39-1.55,3.92-2.01,1.53-.45,3.21-.68,5.02-.68s3.53.23,5.05.68c1.51.45,2.81,1.12,3.89,2.01,1.08.89,1.93,2,2.54,3.33.61,1.34.91,2.91.91,4.72s-.31,3.53-.91,4.93Z" style="fill:#fff;"/><polygon points="358.51 287.38 370.43 287.38 370.43 318.01 384.17 318.01 384.17 289.27 381.87 288.8 381.87 287.38 396.09 287.38 396.09 276.7 358.51 276.7 358.51 287.38" style="fill:#fff;"/><polygon points="399.4 287.38 404.95 287.38 404.95 288.8 402.64 289.27 402.64 318.01 416.39 318.01 416.39 276.7 399.4 276.7 399.4 287.38" style="fill:#fff;"/><polygon points="445.9 304.96 444.48 304.55 444.78 301.07 437.34 276.7 420.05 276.7 420.05 287.38 429.67 287.38 429.67 288.8 427.43 289.27 436.16 318.01 455.63 318.01 468.2 276.7 454.45 276.7 445.9 304.96" style="fill:#fff;"/><polygon points="508.56 287.38 508.56 276.7 470.09 276.7 470.09 287.38 475.63 287.38 475.63 288.8 473.33 289.27 473.33 318.01 508.56 318.01 508.56 307.33 487.08 307.33 487.08 304.37 484.78 303.84 484.78 302.43 506.02 302.43 506.02 291.75 487.08 291.75 487.08 287.38 508.56 287.38" style="fill:#fff;"/><path d="M379.08,0l-.06.11c-.32.02-.6.2-.75.48l-32.23,60.45-5.43,10.18h-161c-.08,0-12.42,19.09-19.87,31.26-5.92,9.65-10.87,17.81-10.87,17.81l-37.93,67.26-.97,1.72-1.86,3.3-.09.17c-.52.9-.63,1.92-.39,2.86.22.94.79,1.8,1.67,2.37.53.35,1.13.56,1.74.63.13.01.27.02.4.02l160.84.72-36.42,68.29H56.55L0,214.91S73.85,73.1,72.51,71.09L39.99,0h339.09Z" style="fill:#fff;"/><path d="M546.51,198.97l-36.62,68.66H245.75l36.42-68.29,68.33-128.12L388.16.59c.15-.28.43-.46.75-.48.02,0,.05-.01.07-.01h86.49l-100.63,188.14v.02l-.89,1.65-.69,1.29c-.14.27-.26.55-.35.83-.38,1.13-.37,2.35.04,3.47.06.16.12.31.2.46.57,1.19,1.57,2.13,2.79,2.63.43.19.93.31,1.45.36h.03c.16.01.33.02.5.02h168.59Z" style="fill:#fff;"/></svg>